<svg xmlns="http://www.w3.org/2000/svg" viewBox="0 0 389.7 173.1"><defs><style>.cls-1{fill:#e2e3e4;}.cls-2{fill:#fff;}.cls-3{fill:#ededee;}.cls-4{fill:#353847;}</style></defs><title>hero1</title><g id="Layer_2" data-name="Layer 2"><g id="Layer_1-2" data-name="Layer 1"><g id="Book_1" data-name="Book 1"><g id="_Group_" data-name=" Group "><path class="cls-1" d="M139.2,155a17.8,17.8,0,0,0,3.1-2.3c56.3-19.5,105.6-47.3,149.2-86.3a355.8,355.8,0,0,1-33.4,44.2,485.4,485.4,0,0,1-103.4,49.1C148.5,158,145.4,157,139.2,155Z"/><path class="cls-1" d="M294.4,74.5c-45.4,36.2-95.6,61.3-152.1,78.2l-8-2.6c62.4-20.8,116.4-51.7,162.9-96.7C296.2,61.8,295.7,66.1,294.4,74.5Z"/><path class="cls-2" d="M134.3,150.1l-1.7-7.6C195.9,122.3,250.8,91.4,297.8,46c-.2,2.9-.3,4.5-.6,7.4C250.7,98.4,196.7,129.3,134.3,150.1Z"/><path class="cls-3" d="M294.4,74.5c1.7-11.3,2.4-17.1,3.4-28.5,7.9-10.1,15.3-20.1,22.4-30.8l4.6,2.7A422.1,422.1,0,0,1,294.4,74.5Z"/><path class="cls-1" d="M294.4,74.5a340.4,340.4,0,0,0,49.5-47.2c-7.8-3.5-11.7-5.4-19.1-9.4A422.1,422.1,0,0,1,294.4,74.5Z"/><path class="cls-1" d="M343.9,27.3a252.6,252.6,0,0,0,8.8-23.7,293.3,293.3,0,0,1-27.9,14.3C332.2,21.9,336.1,23.8,343.9,27.3Z"/><path class="cls-3" d="M297.8,46c7.9-10.1,15.3-20.1,22.4-30.8A275,275,0,0,1,295.9,0C297.2,15.3,297.8,30.7,297.8,46Z"/><path class="cls-2" d="M240.6,92.2a556.2,556.2,0,0,1-33.4-55.3c10.7-8.5,20.7-17,30.8-26.5A315.3,315.3,0,0,0,295.9,0c1.3,15.3,1.9,30.7,1.9,46A432.8,432.8,0,0,1,240.6,92.2Z"/><path class="cls-1" d="M207.2,36.9l-6.8-4.2a244.3,244.3,0,0,0,21.5-20.4c6.4-.6,9.6-.9,16.1-1.9C227.9,19.9,217.9,28.4,207.2,36.9Z"/><path class="cls-2" d="M238,10.4c-10.1,9.5-20.1,18-30.8,26.5l-6.8-4.2"/><path class="cls-2" d="M139.2,155l3,7.2a477.8,477.8,0,0,0,114.1-53.5c-.7-2.2-1.1-3.2-1.9-5.3A466.6,466.6,0,0,1,139.2,155Z"/><path class="cls-2" d="M256.3,108.7a482.5,482.5,0,0,0,63.8-46.9c-9.3,4.7-14,6.9-23.5,11.1q-20.2,16.2-42.2,30.5C255.2,105.5,255.6,106.5,256.3,108.7Z"/><path class="cls-1" d="M343.9,27.3l11.5,7a245.3,245.3,0,0,0,15.5-22.1A296,296,0,0,1,343.9,27.3Z"/><path class="cls-3" d="M296.6,72.9c10.3-4.2,15.4-6.5,25.5-11.3l.3-.2a479.7,479.7,0,0,0,60.3-15.3A311.2,311.2,0,0,1,353.2,33l-2.3-1.3-7-4.4A453.1,453.1,0,0,1,296.6,72.9Z"/><path class="cls-2" d="M256.3,108.7a482.5,482.5,0,0,0,63.8-46.9,481.6,481.6,0,0,0,62.6-15.7,710,710,0,0,1,7,81A604.4,604.4,0,0,1,330.1,170,537.2,537.2,0,0,1,256.3,108.7Z"/><path class="cls-1" d="M389.7,127.1l-7.2.3a573.9,573.9,0,0,1-61.3,45.7l10.2-.8A556.6,556.6,0,0,0,389.7,127.1Z"/><path class="cls-4" d="M4.6,14.6,1.7,13.5l.8-2.9.9-3L6.2,9l-.9,2.8Z"/><path class="cls-4" d="M3.2,23.5l-3-.8v-1c.1-.5.3-1.4.4-2.1A29.1,29.1,0,0,1,1,16.5l2.9,1-.5,3c-.1.8-.1,1.6-.2,2.1Z"/><path class="cls-4" d="M3.3,32.8l-3-.5a2.8,2.8,0,0,0-.1-.9,18.5,18.5,0,0,1-.1-2.3C0,27.4,0,25.8,0,25.8l3,.7s0,1.6.1,3.1.1,1.6.1,2.2A3.1,3.1,0,0,1,3.3,32.8Z"/><path class="cls-4" d="M5.6,42.3H2.7L1.6,38.9c-.5-1.8-.8-3.4-.8-3.4l3,.3A32,32,0,0,0,4.6,39C5,40.6,5.6,42.3,5.6,42.3Z"/><path class="cls-4" d="M11.1,51.2,8.8,52.3a13.1,13.1,0,0,1-2.5-3.2c-.6-.8-1-1.7-1.5-2.3l-.6-1,2.9-.5A40.7,40.7,0,0,0,11.1,51.2Z"/><path class="cls-4" d="M20,58.2a20,20,0,0,0-1,2.1A30.7,30.7,0,0,1,15.1,58a10.8,10.8,0,0,1-2.4-1.8l-1-.9,2-1.4,1,.7a15.6,15.6,0,0,0,2,1.6Z"/><path class="cls-4" d="M31.1,61.8a23,23,0,0,0,.3,2.6l-1.3-.3h-.7l-.8-.2-1.5-.4-4.2-1.4c.3-.8.5-1.5.7-2.2l3.8,1.2,1.3.3.5.2h.7Z"/><path class="cls-4" d="M41,61l2.2,2.2a22.9,22.9,0,0,1-3.7,1.2,26.9,26.9,0,0,1-4,.3,24.1,24.1,0,0,1-.8-2.5,19.5,19.5,0,0,0,3.4-.3A14,14,0,0,0,41,61Z"/><path class="cls-4" d="M43.5,54.4l2.9-.2a10.9,10.9,0,0,1,.6,3.6,8.6,8.6,0,0,1-.6,2.3l-.6.9-2.9-1.7.5-.6a4.8,4.8,0,0,0,.5-1.7A4.6,4.6,0,0,0,43.5,54.4Z"/><path class="cls-4" d="M36.2,49.3c-.1-1-.1-1.6-.2-2.5a16.4,16.4,0,0,1,4.3,1.3,26.1,26.1,0,0,1,2.8,1.7l1,1-2.2,1.3a8.1,8.1,0,0,0-2.6-1.8A8.7,8.7,0,0,0,36.2,49.3Z"/><path class="cls-4" d="M26.7,50.8l-2-2.4,1.1-.4,2.4-.7a22.5,22.5,0,0,1,3.6-.6,18.9,18.9,0,0,1,1.1,2.5l-3.2.5-2.1.7Z"/><path class="cls-4" d="M18.8,55.4l-2.5-2.1,2.6-1.8,1.9-1.1,1-.6,2,2.3-.8.5-1.8,1Z"/><path class="cls-4" d="M12.8,61.8,10,60.1l1.9-2.4a10.6,10.6,0,0,1,1.4-1.5l.7-.7,2.7,2-.7.6a8.6,8.6,0,0,0-1.3,1.4Z"/><path class="cls-4" d="M8.7,69.4,5.5,67.8l1.3-2.7,1.6-2.5,2.9,1.6L9.8,66.8A20.3,20.3,0,0,0,8.7,69.4Z"/><path class="cls-4" d="M6,77.7,2.6,76.5a2.9,2.9,0,0,1,.3-1,14.6,14.6,0,0,1,.5-2l1-2.9L7.6,72l-1,2.8c-.1.7-.3,1.5-.4,2A2.9,2.9,0,0,0,6,77.7Z"/><path class="cls-4" d="M4.8,86.5l-3.4-1,.2-3a16.7,16.7,0,0,1,.5-3.1l3.3,1.1c-.2,1-.4,2-.5,3S4.8,86.5,4.8,86.5Z"/><path class="cls-4" d="M5.3,95.9l-3.6-.7c-.1,0-.4-6.5-.4-6.5l3.4.9S5,95.8,5.3,95.9Z"/><path class="cls-4" d="M7.3,105.4l-3.4-.2s-1.8-6.8-1.6-6.8l3.4.6C5.5,99,7.3,105.4,7.3,105.4Z"/><path class="cls-4" d="M11.5,115.2H8.1l-1.7-3.4L5,108.5l3.5.2L9.8,112C10.3,113.1,10.9,114.1,11.5,115.2Z"/><path class="cls-4" d="M17.7,124.8l-3,.5-.8-1L12.3,122,10,118.7l3.2-.3,2.3,3.2,1.4,2.2Z"/><path class="cls-4" d="M26.6,133.6,24,134.8s-6.8-6.1-6.5-6.2l2.9-.9C20.2,127.8,26.6,133.6,26.6,133.6Z"/><path class="cls-4" d="M37.9,141.2l-1.7,1.7-4.4-2.4-2.7-2a5.7,5.7,0,0,1-1.3-.8l2.2-1.5,1.1.9,2.7,1.7Z"/><path class="cls-4" d="M50.8,147.1a7.5,7.5,0,0,1-1,2,42.3,42.3,0,0,1-4.7-1.8l-3.2-1.4-1.4-.7,1.5-2,1.4.7,3,1.3Z"/><path class="cls-4" d="M64.7,151.4c-.1.9-.2,1.4-.3,2.3l-5-1.3-4.9-1.5a19.5,19.5,0,0,0,.8-2.2l4.7,1.4Z"/><path class="cls-4" d="M78.9,154.3c0,1,.1,1.4.1,2.4l-4.9-.9-3.4-.7-1.5-.3c.1-.9.1-1.4.2-2.3l1.5.3,3.2.6Z"/><path class="cls-4" d="M93.1,155.7l.6,2.4-5-.3-4.9-.5c-.1-1-.1-1.5-.2-2.5l4.7.6Z"/><path class="cls-4" d="M107.1,155.9l.9,2.4H98.5l-.8-2.4Z"/><path class="cls-4" d="M120.7,155.1l1.3,2.3-4.6.5c-2.3.2-4.7.2-4.7.2a12.2,12.2,0,0,1-1-2.4l4.5-.2Z"/></g></g></g></g></svg>