<svg id="Layer_1" data-name="Layer 1" xmlns="http://www.w3.org/2000/svg" xmlns:xlink="http://www.w3.org/1999/xlink" viewBox="0 0 576 720"><defs><style>.cls-1{fill:none;}.cls-2{fill:#a7d01f;}.cls-3{clip-path:url(#clip-path);}.cls-4{fill:#fff;}.cls-5{fill:#e2e3e4;}.cls-6{fill:#ededee;}.cls-7{fill:#353847;}</style><clipPath id="clip-path"><rect class="cls-1" width="131.9" height="28.83"/></clipPath><symbol id="SitePoint_Logo_" data-name="SitePoint Logo " viewBox="0 0 131.9 28.8"><g class="cls-3"><path class="cls-4" d="M33.8,10.9a2.4,2.4,0,0,1,.9-.8l1.1-.4,1.4-.2h1.1l1.1.3a1.6,1.6,0,0,1,.8.6,1.9,1.9,0,0,1,.3,1,1.3,1.3,0,0,1-.7,1.3,3.3,3.3,0,0,1-1.6.7L36,14l-2.2.6a4.8,4.8,0,0,0-1.6,1.2,2.6,2.6,0,0,0-.7,2,2.6,2.6,0,0,0,.5,1.7,3.4,3.4,0,0,0,1.2,1.2,4.6,4.6,0,0,0,1.6.7l1.8.2,2.2-.2a3.6,3.6,0,0,0,1.7-.7,2.4,2.4,0,0,0,1.3-1.3,4.6,4.6,0,0,0,.5-2H40a2,2,0,0,1-.3,1.1l-.8.7-1,.3H35.8l-.9-.3a1.2,1.2,0,0,1-.7-.5,1.3,1.3,0,0,1,.1-1.8,2.4,2.4,0,0,1,1.1-.6l1.4-.4,1.6-.4,1.7-.4a3.7,3.7,0,0,0,1.4-.7,3.6,3.6,0,0,0,1-1.1,2.2,2.2,0,0,0,.4-1.6,4.6,4.6,0,0,0-.5-2A5.3,5.3,0,0,0,41,8.5l-1.9-.7L37,7.6a7.6,7.6,0,0,0-2.1.3,6.2,6.2,0,0,0-1.9.7A5.7,5.7,0,0,0,31.7,10a5.4,5.4,0,0,0-.5,2.1h2.3a2.7,2.7,0,0,1,.3-1.2"/><rect class="cls-4" x="45.6" y="8" width="2.3" height="13.35"/><path class="cls-4" d="M57.2,21.3v-2H54.5V11a1.3,1.3,0,0,1,.1-.6c0-.1.1-.3.2-.3l.5-.2h1.9v-2H54l-1,.5a1.6,1.6,0,0,0-.6.8,7.7,7.7,0,0,0-.2,1.5v8.6H49.9v2h2.3v4h2.3v-4Z"/><path class="cls-4" d="M69.5,8.8a6.7,6.7,0,0,0-3.9-1.2,8.7,8.7,0,0,0-2.8.5,8,8,0,0,0-2.1,1.5,5.3,5.3,0,0,0-1.2,2.2,9.2,9.2,0,0,0-.5,2.8,8.7,8.7,0,0,0,.5,2.8,6.1,6.1,0,0,0,1.3,2.2,8,8,0,0,0,2.1,1.5,5.8,5.8,0,0,0,2.6.5,4.6,4.6,0,0,0,3-.8,4.9,4.9,0,0,0,2-1.8,6.9,6.9,0,0,0,1-2.5,7.4,7.4,0,0,0,.2-2.6H61.4a10,10,0,0,1,.2-1.6,2.9,2.9,0,0,1,.8-1.4,3.6,3.6,0,0,1,1.4-1,5.8,5.8,0,0,1,1.9-.4,4.8,4.8,0,0,1,2.4.7,3.2,3.2,0,0,1,1.2,2h2.2a5.5,5.5,0,0,0-2-3.4M69,17.3a2.7,2.7,0,0,1-.9,1.2,2,2,0,0,1-1.2.8l-1.5.3a4.5,4.5,0,0,1-1.6-.3,2,2,0,0,1-1.2-.8,2.7,2.7,0,0,1-.9-1.2,3.2,3.2,0,0,1-.3-1.4h7.9a3.2,3.2,0,0,1-.3,1.4"/><path class="cls-4" d="M76.4,21.3V19.5h.1a3.7,3.7,0,0,0,1.7,1.6,6.5,6.5,0,0,0,2.7.5,5.5,5.5,0,0,0,2.8-.6,4.5,4.5,0,0,0,1.9-1.5,4.6,4.6,0,0,0,1.2-2.3,7.5,7.5,0,0,0,.4-2.6,8.4,8.4,0,0,0-.4-2.7,6.5,6.5,0,0,0-1.1-2.2,5,5,0,0,0-2-1.5,6.7,6.7,0,0,0-2.8-.6H79.8L78.6,8l-1.2.6a2.8,2.8,0,0,0-.9,1h-.1V2.8H74.2V21.3Zm8.2-4.8a3,3,0,0,1-.8,1.6,2.8,2.8,0,0,1-1.3,1.1,3.1,3.1,0,0,1-1.9.4,3.4,3.4,0,0,1-2-.4,4.5,4.5,0,0,1-1.3-1.1,5.1,5.1,0,0,1-.7-1.7,5.2,5.2,0,0,1-.3-1.8,6.3,6.3,0,0,1,.3-1.9,5.6,5.6,0,0,1,.7-1.6L78.7,10a4.6,4.6,0,0,1,2-.5,3.9,3.9,0,0,1,3.2,1.6,5.1,5.1,0,0,1,.7,1.7,6.2,6.2,0,0,1,.2,1.9,11,11,0,0,1-.2,1.8"/><path class="cls-4" d="M89.6,17.3a5.8,5.8,0,0,0,1.3,2.3A4.1,4.1,0,0,0,93,21a4.9,4.9,0,0,0,2.9.6,5.5,5.5,0,0,0,2.8-.6,4.1,4.1,0,0,0,2.1-1.4,5.8,5.8,0,0,0,1.3-2.3,7.6,7.6,0,0,0,.5-2.7,9.2,9.2,0,0,0-.5-2.8,7.1,7.1,0,0,0-1.3-2.2,6,6,0,0,0-2.1-1.4,6.7,6.7,0,0,0-2.8-.6,7.2,7.2,0,0,0-2.9.6,6,6,0,0,0-2.1,1.4,7.1,7.1,0,0,0-1.3,2.2,9,9,0,0,0-.4,2.8,8,8,0,0,0,.4,2.7m2.3-4.9a5.1,5.1,0,0,1,.9-1.6,4.2,4.2,0,0,1,1.4-.9,3.8,3.8,0,0,1,3.3,0,4.2,4.2,0,0,1,1.4.9,5.1,5.1,0,0,1,.9,1.6,8.5,8.5,0,0,1,.4,2.2,7.1,7.1,0,0,1-.4,2.1,4.2,4.2,0,0,1-.9,1.6,3.3,3.3,0,0,1-1.4,1,4.5,4.5,0,0,1-1.6.3,4.7,4.7,0,0,1-1.7-.3,3.3,3.3,0,0,1-1.4-1,4.2,4.2,0,0,1-.9-1.6,7.1,7.1,0,0,1-.3-2.1,8.3,8.3,0,0,1,.3-2.2"/><rect class="cls-4" x="105.4" y="8" width="2.3" height="13.35"/><path class="cls-4" d="M113.3,21.3V19.1h0a4.7,4.7,0,0,0,4.5,2.5,4.5,4.5,0,0,0,2.3-.4,3.1,3.1,0,0,0,1.5-1,3.5,3.5,0,0,0,.7-1.5,6.4,6.4,0,0,0,.3-2V7.9h-2.3V17a2.6,2.6,0,0,1-.7,1.9,2.7,2.7,0,0,1-2.1.7,5.7,5.7,0,0,1-1.8-.3,3.5,3.5,0,0,1-1.3-.8,3.7,3.7,0,0,1-.7-1.4,4.1,4.1,0,0,1-.3-1.6V7.9h-2.3V21.3Z"/><path class="cls-4" d="M131.9,21.3v-2h-2.8V11c0-.2.1-.4.1-.6a.3.3,0,0,1,.3-.3h0l.5-.2h1.9v-2h-3.3a3.1,3.1,0,0,0-1,.5,3.5,3.5,0,0,0-.5.8,3.9,3.9,0,0,0-.2,1.5v8.6h-2.4v2h2.4v4h2.2v-4Z"/><path class="cls-4" d="M.8,16.1l2.1-2L9.5,7.9l2.8,2.8a.9.9,0,0,1,0,1.2L9.7,14.2h0L6.9,16.9a1.1,1.1,0,0,0,0,1.3l7.6,7.3L11,28.8,2.9,20.9l-2.1-2a1.9,1.9,0,0,1-.1-2.7H.8"/><path class="cls-4" d="M23.3,12.6l-2.1,2.1-6.6,6.1-2.8-2.7a.9.9,0,0,1,0-1.2l2.6-2.3h0l2.8-2.7a1.1,1.1,0,0,0,0-1.3L9.6,3.3,13.1,0l8.1,7.8,2.1,2.1a2,2,0,0,1,.2,2.6h-.2"/><path class="cls-4" d="M48,24a1.3,1.3,0,1,0-1.3,1.3h0A1.3,1.3,0,0,0,48,24"/><path class="cls-4" d="M107.8,24a1.3,1.3,0,1,0-1.3,1.3,1.3,1.3,0,0,0,1.3-1.3h0"/></g></symbol><symbol id="BG-single" data-name="BG-single" viewBox="0 0 503 659"><rect class="cls-2" width="503" height="659"/><use width="131.9" height="28.83" transform="translate(346.8 584.9)" xlink:href="#SitePoint_Logo_"/></symbol></defs><title>Frontend-cover</title><g id="Book_1" data-name="Book 1"><use id="BG-single-3" data-name="BG-single" width="503" height="659" transform="matrix(1.15, 0, 0, -1.09, 0, 720)" xlink:href="#BG-single"/><g id="_Group_" data-name=" Group "><path class="cls-5" d="M259.3,562.6a34,34,0,0,0,3-2.3C318.6,540.7,367.9,513,411.6,474a365.7,365.7,0,0,1-33.5,44.1,490.7,490.7,0,0,1-103.4,49.2Z"/><path class="cls-5" d="M414.4,482c-45.4,36.2-95.6,61.3-152.1,78.3l-8-2.6C316.7,536.8,370.7,506,417.2,461,416.3,469.4,415.7,473.6,414.4,482Z"/><path class="cls-4" d="M254.3,557.7l-1.7-7.7c63.3-20.2,118.2-51,165.3-96.5-.3,3-.4,4.5-.7,7.5C370.7,506,316.7,536.8,254.3,557.7Z"/><path class="cls-6" d="M414.4,482c1.7-11.3,2.4-17.1,3.5-28.5,7.9-10,15.2-20.1,22.3-30.8l4.6,2.8A427.1,427.1,0,0,1,414.4,482Z"/><path class="cls-5" d="M414.4,482a340.4,340.4,0,0,0,49.5-47.2c-7.8-3.4-11.7-5.4-19.1-9.3A427.1,427.1,0,0,1,414.4,482Z"/><path class="cls-5" d="M463.9,434.8a252.6,252.6,0,0,0,8.8-23.7,282.6,282.6,0,0,1-27.9,14.4C452.2,429.4,456.1,431.4,463.9,434.8Z"/><path class="cls-6" d="M417.9,453.5c7.9-10,15.2-20.1,22.3-30.8a253.5,253.5,0,0,1-24.3-15.2C417.2,422.8,417.9,438.2,417.9,453.5Z"/><path class="cls-4" d="M360.6,499.7a574.3,574.3,0,0,1-33.4-55.2c10.7-8.6,20.7-17.1,30.8-26.6a307,307,0,0,0,57.9-10.4c1.3,15.3,2,30.7,2,46A432.2,432.2,0,0,1,360.6,499.7Z"/><path class="cls-5" d="M327.2,444.5l-6.8-4.3a243.2,243.2,0,0,0,21.5-20.3c6.4-.7,9.7-1,16.1-2C347.9,427.4,337.9,435.9,327.2,444.5Z"/><path class="cls-4" d="M358,417.9c-10.1,9.5-20.1,18-30.8,26.6l-6.8-4.3"/><path class="cls-4" d="M259.3,562.6l2.9,7.2a482,482,0,0,0,114.1-53.6c-.7-2.1-1-3.1-1.8-5.3A466.5,466.5,0,0,1,259.3,562.6Z"/><path class="cls-4" d="M376.3,516.2a481.8,481.8,0,0,0,63.8-46.8c-9.3,4.7-14,6.9-23.5,11-13.5,10.8-27.6,21-42.1,30.5C375.3,513.1,375.6,514.1,376.3,516.2Z"/><path class="cls-5" d="M463.9,434.8l11.6,7c6.6-8.7,9.7-13.1,15.4-22A295.2,295.2,0,0,1,463.9,434.8Z"/><path class="cls-6" d="M416.6,480.4c10.3-4.1,15.5-6.4,25.5-11.2l.3-.3a479.7,479.7,0,0,0,60.3-15.3,287.7,287.7,0,0,1-29.5-13.1l-2.3-1.3-7-4.4A453.1,453.1,0,0,1,416.6,480.4Z"/><path class="cls-4" d="M376.3,516.2a481.8,481.8,0,0,0,63.8-46.8,498.7,498.7,0,0,0,62.6-15.8,710,710,0,0,1,7,81,598.5,598.5,0,0,1-59.5,42.9A518.4,518.4,0,0,1,376.3,516.2Z"/><path class="cls-5" d="M509.7,534.6l-7.2.3a573.9,573.9,0,0,1-61.3,45.7l10.2-.8A556.6,556.6,0,0,0,509.7,534.6Z"/><path class="cls-7" d="M124.6,422.2l-2.9-1.1.8-3,.9-2.9,2.8,1.3-.9,2.8Z"/><path class="cls-7" d="M123.2,431l-3-.7v-1a12.4,12.4,0,0,0,.4-2.2c.1-1,.2-2.1.4-3.1l2.9,1-.5,3.1c-.1.7-.1,1.5-.2,2Z"/><path class="cls-7" d="M123.3,440.3l-2.9-.4c-.1-.4-.1-.7-.2-1a17.7,17.7,0,0,1-.1-2.3c-.1-1.6-.1-3.3-.1-3.3l3,.8s0,1.5.1,3,.1,1.7.1,2.2A3.8,3.8,0,0,1,123.3,440.3Z"/><path class="cls-7" d="M125.6,449.8h-2.8l-1.2-3.4-.8-3.4,3,.4s.3,1.5.8,3.1A30.8,30.8,0,0,0,125.6,449.8Z"/><path class="cls-7" d="M131.1,458.8l-2.3,1.1a15.9,15.9,0,0,1-2.5-3.3c-.6-.8-1-1.6-1.5-2.3l-.6-1,2.9-.4A55.7,55.7,0,0,0,131.1,458.8Z"/><path class="cls-7" d="M140,465.8l-1,2a26.5,26.5,0,0,1-3.9-2.3l-2.4-1.8-1-.9,2.1-1.4.9.8a14.9,14.9,0,0,0,2,1.5Z"/><path class="cls-7" d="M151.2,469.4a21.1,21.1,0,0,0,.2,2.5l-1.3-.2h-.7l-.8-.3-1.5-.4a34.5,34.5,0,0,1-4.2-1.4,18.7,18.7,0,0,0,.7-2.2l3.8,1.2,1.4.3.4.3h.7Z"/><path class="cls-7" d="M161,468.5l2.2,2.2a22.9,22.9,0,0,1-3.7,1.2,13.3,13.3,0,0,1-4,.3,18.3,18.3,0,0,1-.8-2.5l3.4-.2A14.2,14.2,0,0,0,161,468.5Z"/><path class="cls-7" d="M163.5,461.9l2.9-.2a7.6,7.6,0,0,1,.6,3.6,8.6,8.6,0,0,1-.6,2.3l-.6.9-2.8-1.6.4-.7a3.3,3.3,0,0,0,.5-1.6A5.1,5.1,0,0,0,163.5,461.9Z"/><path class="cls-7" d="M156.2,456.8c-.1-1-.1-1.5-.2-2.5a21.3,21.3,0,0,1,4.3,1.3,16.7,16.7,0,0,1,2.8,1.8l1,.9-2.2,1.3a10,10,0,0,0-2.6-1.8A11.2,11.2,0,0,0,156.2,456.8Z"/><path class="cls-7" d="M146.7,458.3l-2-2.4,1.1-.4,2.4-.7,3.6-.6a18.9,18.9,0,0,1,1.1,2.5l-3.2.5-2.1.7Z"/><path class="cls-7" d="M138.8,462.9l-2.5-2,2.6-1.9,2-1.1.9-.5,2,2.2-.8.5-1.8,1.1Z"/><path class="cls-7" d="M132.8,469.4l-2.8-1.8,1.9-2.4,1.4-1.5.7-.7,2.7,2a4.6,4.6,0,0,0-.7.7,8.6,8.6,0,0,0-1.3,1.4Z"/><path class="cls-7" d="M128.7,476.9l-3.2-1.5,1.3-2.8,1.6-2.5,2.9,1.7-1.4,2.5A12.3,12.3,0,0,0,128.7,476.9Z"/><path class="cls-7" d="M126,485.2l-3.4-1.2a3.8,3.8,0,0,1,.3-1,13.3,13.3,0,0,1,.5-1.9l1-3,3.2,1.4-.9,2.9a18,18,0,0,0-.5,1.9A2.9,2.9,0,0,0,126,485.2Z"/><path class="cls-7" d="M124.8,494.1l-3.4-1,.2-3.1a15.7,15.7,0,0,1,.5-3l3.3,1.1a25,25,0,0,0-.5,2.9C124.9,492.5,124.8,494.1,124.8,494.1Z"/><path class="cls-7" d="M125.3,503.5l-3.6-.8c-.1,0-.4-6.5-.4-6.5l3.4.9S125,503.4,125.3,503.5Z"/><path class="cls-7" d="M127.3,513l-3.4-.3s-1.8-6.7-1.6-6.7l3.4.5C125.5,506.5,127.3,513,127.3,513Z"/><path class="cls-7" d="M131.5,522.7h-3.4s-.9-1.6-1.7-3.4L125,516l3.5.2,1.4,3.3A19.1,19.1,0,0,0,131.5,522.7Z"/><path class="cls-7" d="M137.8,532.3l-3.1.6-.8-1-1.6-2.3-2.3-3.4,3.2-.2,2.3,3.1,1.5,2.2Z"/><path class="cls-7" d="M146.6,541.2l-2.5,1.2s-6.9-6.2-6.6-6.3l2.9-.8C140.2,535.4,146.6,541.2,146.6,541.2Z"/><path class="cls-7" d="M157.9,548.7l-1.7,1.7-4.4-2.4-2.7-1.9-1.3-.9,2.2-1.4,1.2.8,2.6,1.7Z"/><path class="cls-7" d="M170.9,554.6a21.2,21.2,0,0,1-1.1,2.1s-2.3-.8-4.7-1.9l-3.2-1.4-1.4-.7,1.5-1.9,1.4.6,3,1.3Z"/><path class="cls-7" d="M184.7,559c-.1.8-.2,1.4-.3,2.3l-5-1.4-4.9-1.5a14.3,14.3,0,0,0,.8-2.2l4.7,1.5Z"/><path class="cls-7" d="M198.9,561.8c0,1,.1,1.4.1,2.4l-4.9-.9-3.4-.6-1.5-.4c.1-.8.1-1.4.2-2.2l1.5.3,3.2.5Z"/><path class="cls-7" d="M213.1,563.2l.6,2.4-4.9-.3-5-.4c-.1-1-.1-1.6-.2-2.6l4.7.6Z"/><path class="cls-7" d="M227.1,563.4l.9,2.4h-9.5l-.8-2.4Z"/><path class="cls-7" d="M240.7,562.7A17.1,17.1,0,0,1,242,565l-4.6.4c-2.3.2-4.7.2-4.7.2a8.7,8.7,0,0,1-1-2.4l4.5-.2Z"/></g></g></svg>